<svg width="44" height="44" viewBox="0 0 44 44" fill="none" xmlns="http://www.w3.org/2000/svg">
<path fill-rule="evenodd" clip-rule="evenodd" d="M31.4851 31.484C27.8179 35.1511 22.388 35.9443 17.9432 33.8888C17.288 33.6248 16.7492 33.4112 16.238 33.4112C14.8136 33.4196 13.0412 34.8007 12.1196 33.8804C11.1992 32.9588 12.5804 31.1852 12.5804 29.7524C12.5804 29.2401 12.3753 28.7121 12.1113 28.0545C10.0557 23.6122 10.8488 18.1799 14.516 14.5128C19.1984 9.82928 26.8039 9.82927 31.4851 14.5116C36.1758 19.2023 36.1674 26.8017 31.4851 31.484Z" stroke="white" stroke-width="2" stroke-linecap="round" stroke-linejoin="round"/>
<path opacity="0.4" d="M27.3379 23.48H27.3454" stroke="white" stroke-width="2" stroke-linecap="round" stroke-linejoin="round"/>
<path opacity="0.4" d="M23.4883 23.48H23.4958" stroke="white" stroke-width="2" stroke-linecap="round" stroke-linejoin="round"/>
<path opacity="0.4" d="M19.6426 23.48H19.6501" stroke="white" stroke-width="2" stroke-linecap="round" stroke-linejoin="round"/>
</svg>
