<svg width="60" height="60" viewBox="0 0 60 60" fill="none" xmlns="http://www.w3.org/2000/svg">
<g filter="url(#filter0_d_673_3647)">
<rect x="8" y="8" width="44" height="44" rx="8" fill="#F6F5F3"/>
</g>
<path d="M23.3341 23.9994C23.3341 20.3234 26.3247 17.3328 30.0007 17.3328C33.6767 17.3328 36.6674 20.3234 36.6674 23.9994C36.6674 27.6754 33.6767 30.6661 30.0007 30.6661C26.3247 30.6661 23.3341 27.6754 23.3341 23.9994ZM35.4901 32.0942C34.7447 31.9048 33.9341 32.0115 33.2634 32.3848C31.2394 33.5102 28.762 33.5102 26.738 32.3848C26.0687 32.0128 25.2567 31.9075 24.5114 32.0942C21.8554 32.7648 20.0007 35.1755 20.0007 37.9555V39.3035C20.0007 40.1541 20.2274 40.986 20.658 41.7113C21.0087 42.3007 21.6661 42.6674 22.3714 42.6674H37.6287C38.3341 42.6674 38.9914 42.302 39.342 41.71C39.7727 40.986 39.9994 40.1541 39.9994 39.3035V37.9555C40.0008 35.1755 38.1461 32.7648 35.4901 32.0942Z" fill="#038175"/>
<defs>
<filter id="filter0_d_673_3647" x="0" y="0" width="60" height="60" filterUnits="userSpaceOnUse" color-interpolation-filters="sRGB">
<feFlood flood-opacity="0" result="BackgroundImageFix"/>
<feColorMatrix in="SourceAlpha" type="matrix" values="0 0 0 0 0 0 0 0 0 0 0 0 0 0 0 0 0 0 127 0" result="hardAlpha"/>
<feMorphology radius="2" operator="dilate" in="SourceAlpha" result="effect1_dropShadow_673_3647"/>
<feOffset/>
<feGaussianBlur stdDeviation="3"/>
<feComposite in2="hardAlpha" operator="out"/>
<feColorMatrix type="matrix" values="0 0 0 0 0.478431 0 0 0 0 0.592157 0 0 0 0 0.670588 0 0 0 0.6 0"/>
<feBlend mode="normal" in2="BackgroundImageFix" result="effect1_dropShadow_673_3647"/>
<feBlend mode="normal" in="SourceGraphic" in2="effect1_dropShadow_673_3647" result="shape"/>
</filter>
</defs>
</svg>
